<svg width="55" height="53" viewBox="0 0 55 53" fill="none" xmlns="http://www.w3.org/2000/svg">
<path d="M27.4999 0.333496C23.998 0.333496 20.5304 1.02325 17.295 2.36338C14.0597 3.7035 11.12 5.66775 8.64374 8.14398C3.64277 13.145 0.833252 19.9277 0.833252 27.0002C0.833252 38.7868 8.48659 48.7868 19.0733 52.3335C20.4066 52.5468 20.8333 51.7202 20.8333 51.0002C20.8333 50.3868 20.8333 48.7068 20.8333 46.4935C13.4466 48.0935 11.8733 42.9202 11.8733 42.9202C10.6466 39.8268 8.91325 39.0002 8.91325 39.0002C6.48659 37.3468 9.09992 37.4002 9.09992 37.4002C11.7666 37.5868 13.1799 40.1468 13.1799 40.1468C15.4999 44.2002 19.4199 43.0002 20.9399 42.3602C21.1799 40.6268 21.8733 39.4535 22.6199 38.7868C16.6999 38.1202 10.4866 35.8268 10.4866 25.6668C10.4866 22.7068 11.4999 20.3335 13.2333 18.4402C12.9666 17.7735 12.0333 15.0002 13.4999 11.4002C13.4999 11.4002 15.7399 10.6802 20.8333 14.1202C22.9399 13.5335 25.2333 13.2402 27.4999 13.2402C29.7666 13.2402 32.0599 13.5335 34.1666 14.1202C39.2599 10.6802 41.4999 11.4002 41.4999 11.4002C42.9666 15.0002 42.0333 17.7735 41.7666 18.4402C43.4999 20.3335 44.5132 22.7068 44.5132 25.6668C44.5132 35.8535 38.2733 38.0935 32.3266 38.7602C33.2866 39.5868 34.1666 41.2135 34.1666 43.6935C34.1666 47.2668 34.1666 50.1468 34.1666 51.0002C34.1666 51.7202 34.5933 52.5735 35.9533 52.3335C46.5399 48.7602 54.1666 38.7868 54.1666 27.0002C54.1666 23.4982 53.4768 20.0306 52.1367 16.7953C50.7966 13.5599 48.8323 10.6202 46.3561 8.14398C43.8799 5.66775 40.9402 3.7035 37.7048 2.36338C34.4695 1.02325 31.0018 0.333496 27.4999 0.333496Z" fill="white"/>
</svg>
